<?xml version="1.0" encoding="UTF-8"?>
<!DOCTYPE svg PUBLIC "-//W3C//DTD SVG 1.1//EN" "http://www.w3.org/Graphics/SVG/1.1/DTD/svg11.dtd">
<!-- Creator: CorelDRAW 2018 (64-Bit) -->
<svg xmlns="http://www.w3.org/2000/svg" xml:space="preserve" width="100px" height="100px" version="1.1" style="shape-rendering:geometricPrecision; text-rendering:geometricPrecision; image-rendering:optimizeQuality; fill-rule:evenodd; clip-rule:evenodd"
viewBox="0 0 100 100"
 xmlns:xlink="http://www.w3.org/1999/xlink">
 <defs>
  <style type="text/css">
   <![CDATA[
    .str0 {stroke:#060B31;stroke-width:8.86;stroke-miterlimit:22.9256}
    .fil0 {fill:none}
    .fil1 {fill:#060B31}
    .fil2 {fill:white}
   ]]>
  </style>
 </defs>
 <g id="Слой_x0020_1">
  <metadata id="CorelCorpID_0Corel-Layer"/>
  <circle class="fil0 str0" cx="52.33" cy="47.74" r="42.02"/>
  <g id="_2424664786336">
  </g>
  <g id="_2424664785248">
  </g>
  <g id="_2424664784736">
  </g>
  <g id="_2424664785984">
  </g>
  <g id="_2424664783776">
  </g>
  <g id="_2424664782240">
  </g>
  <g id="_2424664782560">
  </g>
  <g id="_2424664782464">
  </g>
  <g id="_2424664781216">
  </g>
  <g id="_2424664781568">
  </g>
  <g id="_2424664780576">
  </g>
  <g id="_2424664780224">
  </g>
  <g id="_2424664779040">
  </g>
  <g id="_2424664779264">
  </g>
  <g id="_2424664778656">
  </g>
  <path class="fil1" d="M42.06 25.74c-6.11,0.61 -10.62,5.09 -11.69,10.89 -0.52,2.88 -0.41,18.93 -0.08,22.28 0.57,5.91 5.31,10.69 10.89,11.56 3.46,0.53 18.52,0.47 22.28,0.09 5.88,-0.59 10.68,-5.33 11.55,-10.9 0.54,-3.44 0.46,-18.55 0.08,-22.23 -0.61,-5.94 -5.28,-10.74 -10.88,-11.59 -3.55,-0.54 -18.35,-0.47 -22.15,-0.1z"/>
  <path class="fil2" d="M42.27 29.79c-2.89,0.37 -4.51,1.83 -5.86,3.24 -1.62,1.69 -2.15,4.2 -2.14,7.12 0.01,5.01 -0.53,14.02 0.11,18.54 0.77,5.46 5.1,7.89 10.31,7.89 5.01,0 13.96,0.52 18.52,-0.09 5.46,-0.74 7.91,-5.26 7.91,-10.33 0,-5.07 0.52,-13.88 -0.12,-18.52 -0.75,-5.43 -5.13,-7.91 -10.3,-7.91 -4.99,0 -13.92,-0.53 -18.43,0.06z"/>
  <path class="fil1" d="M50.04 36.16c-15.58,3.55 -10.77,27.32 5.32,23.99 5.74,-1.19 10.84,-7.21 9.31,-14.64 -1.18,-5.69 -7.32,-11.01 -14.63,-9.35z"/>
  <path class="fil2" d="M51.52 40.12c-11.38,2.08 -7.74,17.92 2.57,16.08 10.72,-1.91 7.64,-17.95 -2.57,-16.08z"/>
  <path class="fil1" d="M63.48 37.6c1.36,0.4 1.74,0.31 2.83,-0.23 0.39,-1.35 0.31,-1.78 -0.23,-2.84 -2.83,-0.82 -3.8,0.71 -2.6,3.07z"/>
 </g>
</svg>
