<?xml version="1.0" encoding="UTF-8"?>
<!DOCTYPE svg PUBLIC "-//W3C//DTD SVG 1.1//EN" "http://www.w3.org/Graphics/SVG/1.1/DTD/svg11.dtd">
<!-- Creator: CorelDRAW 2018 (64-Bit) -->
<svg xmlns="http://www.w3.org/2000/svg" xml:space="preserve" width="9.3132mm" height="9.3132mm" version="1.1" style="shape-rendering:geometricPrecision; text-rendering:geometricPrecision; image-rendering:optimizeQuality; fill-rule:evenodd; clip-rule:evenodd"
viewBox="0 0 931.32 931.32"
 xmlns:xlink="http://www.w3.org/1999/xlink">
 <defs>
  <style type="text/css">
   <![CDATA[
    .fil0 {fill:#272828}
    .fil1 {fill:#57A5CC}
    .fil2 {fill:#FEFEFE}
   ]]>
  </style>
 </defs>
 <g id="Слой_x0020_1">
  <metadata id="CorelCorpID_0Corel-Layer"/>
  <path class="fil0" d="M218.77 98.69c3.34,53.45 35.32,72.75 14.15,101.69l-100.49 126.96 -86.86 -0.95 -9.88 262.72c118.76,5.13 75.63,-18.65 145.26,79.9 71.32,100.93 36.66,48.21 15.3,153.75l242.42 89.98c18.82,-19.9 20.08,-56.27 32.82,-80.57 9.34,-17.83 63.92,-26.85 85.29,-33.19 120.44,-35.76 66.16,-22.1 156.46,33.53 0.89,-0.68 2.17,-2.99 2.53,-2.21l79.75 -99.09c14.99,-19.12 70.82,-87.1 78.99,-107.21 -20.79,-11.3 -48.58,-34.59 -70.46,-52.76l2.89 -172.61c19.84,-18.9 58.4,-35.68 75.43,-56.06 -7.73,-17.01 -136.93,-206.81 -146.26,-213.92 -92.13,45.6 -32.25,62.1 -155.18,16.98 -14.35,-5.27 -75.26,-24.7 -82.48,-31.63 -12.01,-11.5 -23.06,-66.42 -28.69,-86.18l-250.99 70.87z"/>
  <path class="fil1" d="M255.15 119.1c13.52,96.14 40.36,50.39 -23.32,130.73 -28.23,35.62 -55.5,76.48 -85.68,107.53l-72.58 -0.58c-3.99,21.21 -9.2,183.49 -4.5,203.69 103.39,2.89 58.18,-17.52 149.78,111.87 65.98,93.21 27.18,57.31 16.93,132.13 18.97,14.63 177.78,67.83 190.25,69.81l25.85 -76.15c43.24,-10.98 92.54,-25.48 137.77,-39.54 94.22,-29.28 55.03,4.16 119.02,32.34 13.6,-11.14 116.55,-143.99 124.07,-161.64 -19.99,-11.45 -40.12,-30.26 -60.17,-43.37 -0.16,-50.57 2.8,-101.29 4.08,-151.89 0.93,-36.49 -9.04,-63.72 66.24,-94.46 -7.61,-25.25 -88.26,-129.7 -110.88,-170.7 -28.56,9.8 -49.57,41 -76.01,35.23l-168.87 -60.68c-30.48,-12.13 -15.66,-23.6 -38.51,-79.35l-193.47 55.03z"/>
  <path class="fil0" d="M327.8 264.77c5.78,33.39 20.4,41.76 0.3,67.55 -13.78,17.67 -28.96,33.89 -38.64,52.55l-53.88 -0.13 -4.39 151.82c62.9,0.73 49.08,-2.61 78.93,39.96 35.01,49.92 17.01,25.84 5.92,81.61l140.51 52.58c28.19,-44.16 -5.79,-43.41 59.15,-62.57 60.96,-17.99 40.45,-6.16 83.21,19.35 16.69,-10.53 89.17,-110.61 91.9,-119.12 -14.12,-12.84 -29.7,-19.62 -38.27,-36.59l2.25 -78.73c9.87,-11.18 23.97,-20.62 41.65,-28.4 -5.44,-19.57 -69.54,-111.83 -83.81,-126.84 -51.05,20.28 -16.48,34.53 -82.71,10.12 -77.95,-28.73 -25.8,-18.36 -59.06,-63.66l-143.06 40.5z"/>
  <path class="fil2" d="M364.89 287.69c5.09,41.11 20.55,19.8 -28.05,80.87 -38.82,48.78 -24.28,46.72 -72.18,45.12l-3.27 94.41 37.9 1.42c15.09,18.54 28.07,39.15 41.23,59.41 29.89,45.98 23.4,17.48 14.31,70.91 22.9,14.99 56.26,25.09 84.01,31.93 24.12,-35.45 -13.53,-29.01 71.04,-52.44 70.49,-19.53 34.93,-17.78 84.46,6.49 12.38,-10.85 50.38,-56.9 54.76,-72.87 -37.96,-35.86 -27.08,-18.45 -22.79,-139.36l21 -13.58c6.79,-5.54 3.61,-2.87 7.99,-7.12 -4.5,-10.56 -39.47,-64.72 -51.82,-74.62 -34.64,16.4 -11.75,24.43 -86.64,-3.32 -51.42,-19.05 -46.7,-4.54 -63.7,-54.59 -23.29,3.84 -71.81,16.49 -88.25,27.34z"/>
 </g>
</svg>
