<?xml version="1.0" encoding="UTF-8"?>
<!DOCTYPE svg PUBLIC "-//W3C//DTD SVG 1.1//EN" "http://www.w3.org/Graphics/SVG/1.1/DTD/svg11.dtd">
<!-- Creator: CorelDRAW 2018 (64-Bit) -->
<svg xmlns="http://www.w3.org/2000/svg" xml:space="preserve" width="8.4666mm" height="8.4666mm" version="1.1" style="shape-rendering:geometricPrecision; text-rendering:geometricPrecision; image-rendering:optimizeQuality; fill-rule:evenodd; clip-rule:evenodd"
viewBox="0 0 846.66 846.66"
 xmlns:xlink="http://www.w3.org/1999/xlink">
 <defs>
  <style type="text/css">
   <![CDATA[
    .str0 {stroke:#060B31;stroke-width:75;stroke-miterlimit:22.9256}
    .fil0 {fill:none}
    .fil1 {fill:#060B31}
   ]]>
  </style>
 </defs>
 <g id="Слой_x0020_1">
  <metadata id="CorelCorpID_0Corel-Layer"/>
  <circle class="fil0 str0" cx="420.66" cy="409.6" r="355.76"/>
  <g id="XMLID_1_">
   <path id="XMLID_807_" class="fil1" d="M546.85 448.92c13.35,13.04 27.44,25.3 39.42,39.65 5.29,6.38 10.29,12.96 14.12,20.36 5.43,10.52 0.52,22.09 -8.92,22.72l-58.63 -0.02c-15.12,1.25 -27.19,-4.84 -37.33,-15.18 -8.12,-8.27 -15.64,-17.07 -23.45,-25.61 -3.19,-3.5 -6.54,-6.78 -10.55,-9.38 -8,-5.2 -14.95,-3.61 -19.52,4.74 -4.66,8.49 -5.72,17.89 -6.18,27.36 -0.62,13.8 -4.8,17.43 -18.67,18.07 -29.64,1.39 -57.77,-3.09 -83.9,-18.04 -23.04,-13.18 -40.9,-31.79 -56.45,-52.86 -30.28,-41.02 -53.47,-86.1 -74.3,-132.44 -4.69,-10.44 -1.26,-16.04 10.26,-16.24 19.12,-0.37 38.25,-0.35 57.4,-0.03 7.78,0.11 12.92,4.57 15.92,11.92 10.35,25.45 23.02,49.66 38.91,72.1 4.23,5.97 8.55,11.95 14.7,16.15 6.8,4.66 11.97,3.11 15.17,-4.46 2.03,-4.8 2.92,-9.98 3.38,-15.12 1.51,-17.7 1.71,-35.37 -0.94,-53 -1.64,-11.01 -7.83,-18.13 -18.82,-20.21 -5.6,-1.07 -4.77,-3.15 -2.05,-6.35 4.71,-5.52 9.14,-8.95 17.98,-8.95l66.26 0c10.44,2.06 12.75,6.74 14.18,17.24l0.06 73.61c-0.11,4.06 2.03,16.12 9.35,18.81 5.86,1.92 9.72,-2.77 13.23,-6.48 15.87,-16.84 27.19,-36.75 37.31,-57.35 4.49,-9.06 8.35,-18.47 12.09,-27.88 2.77,-6.97 7.12,-10.41 14.98,-10.25l63.78 0.05c1.89,0 3.8,0.03 5.63,0.35 10.75,1.83 13.7,6.45 10.38,16.94 -5.23,16.47 -15.41,30.19 -25.36,43.97 -10.63,14.72 -22.01,28.93 -32.56,43.74 -9.69,13.52 -8.92,20.33 3.12,32.07l0 0zm0 0z"/>
  </g>
  <g id="_2424664786336">
  </g>
  <g id="_2424664785248">
  </g>
  <g id="_2424664784736">
  </g>
  <g id="_2424664785984">
  </g>
  <g id="_2424664783776">
  </g>
  <g id="_2424664782240">
  </g>
  <g id="_2424664782560">
  </g>
  <g id="_2424664782464">
  </g>
  <g id="_2424664781216">
  </g>
  <g id="_2424664781568">
  </g>
  <g id="_2424664780576">
  </g>
  <g id="_2424664780224">
  </g>
  <g id="_2424664779040">
  </g>
  <g id="_2424664779264">
  </g>
  <g id="_2424664778656">
  </g>
 </g>
</svg>
